<?xml version="1.0" standalone="no"?>
<svg version="1.0" xmlns="http://www.w3.org/2000/svg"
 width="300.000000pt" height="374.000000pt" viewBox="0 0 300.000000 374.000000"
 preserveAspectRatio="xMidYMid meet">
<g transform="translate(0.000000,374.000000) scale(0.100000,-0.100000)" stroke="none">
<path d="M1350 3600 c-106 -26 -131 -33 -198 -56 -111 -39 -209 -81 -279 -120
-71 -39 -125 -101 -199 -224 -25 -41 -61 -100 -80 -132 -20 -33 -81 -100 -150
-165 -129 -120 -144 -144 -199 -308 -45 -138 -48 -192 -12 -260 80 -150 161
-255 224 -290 2 -1 -3 -15 -9 -32 -13 -35 6 -102 68 -245 42 -94 43 -137 9
-294 l-25 -116 46 -64 c50 -71 50 -68 3 -172 -33 -73 -34 -70 48 -210 74 -127
124 -202 190 -284 29 -37 53 -75 53 -85 0 -22 -58 -112 -82 -127 -28 -17 -38
3 -47 103 -12 132 -15 134 -171 135 l-121 1 -35 -37 c-34 -37 -34 -39 -34
-132 0 -132 14 -189 59 -239 20 -22 55 -49 79 -59 38 -17 51 -18 120 -8 107
16 134 26 168 63 43 45 57 71 89 162 16 44 29 81 31 83 1 2 46 -41 100 -95 57
-57 118 -108 144 -120 57 -28 234 -63 314 -63 121 0 306 40 371 80 37 23 93
88 119 137 9 18 26 38 39 44 34 19 135 118 177 174 20 28 70 106 110 175 40
69 86 143 102 165 l28 40 -26 64 c-14 35 -28 87 -31 116 -5 51 -4 54 36 97 24
27 41 55 41 69 0 20 -12 87 -39 219 -4 21 -2 57 6 90 15 62 52 170 64 185 18
25 38 129 28 147 -12 23 -5 48 14 48 20 0 48 33 118 140 136 207 139 251 38
485 -4 11 -15 36 -23 57 -8 22 -53 73 -112 130 -122 116 -143 138 -159 163
-192 312 -214 340 -306 393 -73 42 -210 96 -349 139 -93 29 -134 36 -215 39
-55 2 -116 -1 -135 -6z m220 -56 c135 -27 352 -107 464 -170 57 -32 147 -146
200 -257 29 -58 37 -89 43 -162 6 -70 11 -90 23 -90 12 0 15 12 13 53 -1 30 2
52 8 52 5 0 42 -31 82 -69 40 -37 90 -84 112 -104 47 -41 62 -68 110 -195 49
-131 49 -196 -1 -272 -42 -65 -113 -140 -131 -140 -21 0 -15 25 11 49 27 26
71 119 61 129 -4 4 -14 -3 -24 -16 -38 -54 -74 -92 -87 -92 -19 0 -18 9 11 74
27 60 35 119 12 82 -7 -11 -24 -33 -38 -49 -34 -39 -56 -31 -96 36 -62 103
-71 217 -26 304 15 28 24 55 19 60 -10 10 -46 -34 -87 -104 -38 -67 -61 -68
-150 -13 -35 23 -81 49 -101 58 -21 9 -38 22 -38 27 0 6 20 18 45 28 50 21
102 74 87 89 -6 6 -25 0 -51 -17 -33 -22 -55 -28 -123 -32 -71 -4 -95 -1 -161
21 -43 14 -88 26 -102 26 -34 0 -40 16 -12 34 57 38 97 168 76 252 -17 70 -43
116 -85 153 -38 34 -73 51 -105 51 -32 0 -21 -19 21 -36 119 -48 170 -238 93
-348 -50 -70 -71 -80 -176 -80 -118 0 -153 18 -193 101 -49 100 -30 215 50
292 18 17 46 35 61 39 35 10 45 32 16 32 -61 0 -140 -63 -174 -140 -31 -69
-28 -179 7 -248 14 -28 35 -58 46 -64 28 -18 25 -38 -4 -38 -14 0 -62 -12
-108 -26 -111 -35 -216 -31 -279 10 -26 17 -45 24 -51 18 -15 -15 37 -68 87
-89 44 -17 61 -43 30 -43 -9 0 -44 -19 -78 -41 -86 -58 -137 -80 -158 -69 -9
5 -31 33 -47 62 -43 74 -67 102 -80 94 -8 -5 -2 -24 18 -60 52 -92 38 -204
-40 -319 -43 -64 -73 -65 -100 -2 -11 25 -22 45 -26 45 -12 0 6 -80 26 -112
24 -39 25 -58 5 -58 -18 0 -70 55 -87 93 -11 23 -38 39 -38 21 0 -11 62 -129
76 -145 15 -17 19 -39 6 -39 -15 0 -100 95 -134 150 -51 82 -49 122 13 280
l50 128 119 111 c65 61 121 111 124 111 3 0 6 -23 8 -52 5 -78 25 -72 33 9 10
113 27 164 85 255 116 184 158 213 457 314 191 64 262 74 383 48z m8 -734
c105 -14 193 -43 328 -110 65 -33 126 -64 134 -69 8 -5 43 -21 77 -37 54 -24
67 -26 97 -17 l34 11 11 -61 c18 -104 84 -209 136 -219 10 -2 22 -12 25 -23 5
-22 33 -64 62 -96 14 -14 23 -17 42 -9 21 8 23 6 18 -13 -3 -12 -19 -35 -36
-50 -17 -15 -39 -36 -50 -47 -15 -15 -23 -16 -41 -8 -37 17 -61 -15 -87 -114
l-23 -86 -28 14 c-15 8 -27 23 -27 33 0 10 -9 29 -19 43 -13 15 -18 33 -14 46
7 27 -33 82 -91 124 -34 25 -48 29 -84 25 -58 -6 -123 14 -133 41 -8 21 -6 22
46 22 29 0 56 4 60 9 9 15 -97 24 -208 17 -279 -17 -543 -18 -693 -2 -83 9
-178 16 -212 16 -61 0 -87 14 -61 32 9 5 98 7 225 3 156 -5 214 -4 219 5 12
19 -2 23 -93 28 -48 2 -91 8 -97 14 -14 13 13 28 53 28 22 0 32 5 32 15 0 12
-14 15 -65 15 -64 0 -82 10 -47 29 9 5 78 21 152 36 127 26 145 28 320 22 110
-3 186 -10 188 -16 2 -5 9 -8 15 -5 22 8 198 -35 251 -62 16 -7 33 -14 37 -14
4 0 45 -17 91 -38 95 -44 138 -57 138 -42 0 9 -170 97 -245 127 -147 57 -419
113 -550 113 -64 0 -239 -25 -325 -46 -151 -37 -355 -115 -441 -170 -70 -44
-28 -39 87 10 59 25 112 46 118 46 7 0 31 9 54 20 41 20 43 20 67 3 29 -22 50
-57 41 -71 -3 -6 -41 -11 -84 -12 -42 -1 -86 -3 -97 -4 -51 -8 -73 -33 -55
-66 8 -14 31 -21 115 -30 70 -9 105 -17 105 -25 0 -15 -59 -45 -88 -45 -11 0
-22 -5 -24 -11 -3 -9 -14 -8 -41 1 -38 14 -70 6 -105 -27 -7 -7 -19 -16 -25
-20 -27 -16 -59 -74 -54 -95 4 -13 -2 -31 -14 -46 -10 -14 -19 -35 -19 -47 0
-21 -22 -34 -56 -35 -6 0 -17 33 -24 73 -19 102 -48 140 -89 118 -13 -8 -27 0
-61 33 -48 46 -70 72 -70 81 0 3 12 5 27 5 19 0 38 13 65 42 21 23 38 45 38
49 0 4 24 31 54 62 58 58 84 108 105 199 13 54 15 56 38 47 30 -11 65 -3 121
28 24 13 47 21 52 18 4 -3 10 -1 12 4 5 15 221 119 304 146 122 40 252 52 382
35z m320 -642 c-6 -16 -134 -40 -181 -33 -34 5 -42 1 -87 -41 -47 -44 -49 -48
-47 -96 1 -33 -2 -52 -10 -55 -9 -3 -13 7 -13 31 0 25 -4 36 -15 36 -11 0 -15
-12 -15 -47 0 -57 -21 -83 -66 -83 -46 0 -64 22 -64 81 0 37 -4 49 -15 49 -11
0 -15 -11 -15 -36 0 -60 -25 -35 -28 29 -3 53 -6 59 -50 97 -37 33 -51 40 -72
34 -35 -9 -39 -9 -109 6 -33 7 -61 17 -61 23 0 10 34 9 300 -13 98 -7 160 -7
225 1 261 32 329 35 323 17z m-1008 -47 c0 -5 -7 -14 -15 -21 -33 -27 -1 -27
66 1 77 31 100 30 208 -9 34 -12 47 -13 62 -4 25 16 23 17 54 -30 l28 -42 -23
-18 c-28 -22 -44 -23 -61 -1 -49 59 -212 71 -359 27 -128 -38 -134 -39 -124
-22 5 8 38 40 73 71 59 53 91 70 91 48z m1117 -24 c45 -22 72 -15 39 9 -27 19
-13 29 21 15 30 -12 133 -107 133 -122 0 -13 -5 -12 -84 17 -59 22 -91 27
-191 29 -125 3 -144 -2 -207 -48 -23 -17 -32 -19 -53 -9 -31 14 -31 29 -1 67
19 24 32 30 67 31 24 1 73 11 109 22 71 23 101 21 167 -11z m-1449 -109 c21
-90 33 -211 22 -222 -6 -6 -11 -4 -14 5 -71 195 -77 219 -60 244 25 38 38 30
52 -27z m1866 19 c8 -22 3 -47 -25 -129 -42 -123 -65 -142 -56 -47 10 105 39
210 56 207 9 -2 20 -16 25 -31z m-1245 -30 c42 -27 50 -36 39 -45 -10 -8 -25
-8 -49 -2 -19 5 -46 11 -60 14 -15 3 -31 16 -37 31 -16 35 -16 35 21 35 20 0
53 -13 86 -33z m836 14 c39 -10 83 -24 98 -30 16 -6 38 -11 51 -11 12 0 31 -6
41 -14 19 -14 19 -15 1 -84 -12 -47 -16 -87 -12 -119 20 -157 19 -174 -17
-243 -19 -35 -39 -66 -45 -68 -11 -3 -32 81 -32 133 0 41 -16 54 -29 23 -21
-50 -43 -177 -43 -251 -1 -93 -16 -98 -36 -11 -22 89 -22 88 -33 77 -5 -5 -13
-45 -17 -88 -7 -82 -25 -108 -36 -55 -7 38 -26 30 -26 -11 0 -16 -4 -29 -9
-29 -5 0 -31 15 -57 34 -48 33 -49 35 -46 78 3 44 1 47 -59 99 -74 64 -129
145 -129 190 0 17 5 49 12 70 9 31 14 37 25 28 23 -20 25 -3 5 38 -16 32 -18
48 -11 98 8 61 25 85 61 85 22 0 23 -9 3 -46 -8 -16 -15 -40 -15 -53 0 -21 5
-18 48 28 l48 51 65 0 c65 0 176 -23 193 -40 19 -19 -4 -21 -84 -6 -122 24
-148 21 -203 -18 -58 -41 -45 -58 16 -22 51 30 57 31 57 12 0 -8 -9 -18 -20
-21 -31 -10 -24 -23 16 -31 47 -9 163 1 177 15 15 15 58 14 100 -4 53 -22 66
-18 32 10 -16 13 -26 27 -22 31 3 4 13 1 22 -6 20 -16 32 -5 15 14 -35 43
-193 106 -265 106 -62 0 -58 21 8 41 68 22 70 22 152 0z m-1007 -10 c23 -5 46
-12 50 -15 10 -11 -20 -26 -52 -26 -36 0 -168 -65 -198 -97 -16 -17 -18 -23
-7 -23 8 0 20 5 27 12 6 6 15 8 19 4 4 -4 -6 -18 -22 -31 -33 -27 -16 -34 25
-10 29 17 74 19 100 5 27 -15 123 -23 174 -16 51 8 57 16 24 31 -24 11 -36 35
-17 35 6 0 34 -13 60 -30 64 -39 68 -14 5 30 -51 34 -68 36 -186 15 -111 -20
-119 -20 -98 1 22 22 119 44 196 44 63 0 64 0 113 -51 51 -53 61 -48 34 18
-19 46 -19 53 3 53 32 0 45 -18 58 -79 11 -57 11 -64 -9 -100 -22 -41 -19 -63
7 -42 12 10 16 3 26 -45 18 -84 -3 -129 -102 -224 -77 -74 -79 -76 -76 -119 3
-42 1 -45 -46 -78 -56 -38 -71 -38 -72 1 -1 31 -12 45 -18 25 -13 -43 -17 -50
-24 -45 -5 3 -12 37 -16 75 -11 124 -27 134 -47 29 -10 -52 -18 -73 -29 -73
-8 0 -13 7 -11 15 9 38 1 128 -19 217 -33 145 -39 146 -60 11 -7 -44 -18 -78
-24 -78 -11 0 -67 111 -81 158 -4 13 1 58 11 99 15 66 16 83 5 132 -22 97 -24
111 -11 126 7 8 22 15 34 15 11 0 48 9 81 20 66 21 108 23 173 11z m782 -15
c0 -30 -54 -54 -77 -34 -12 10 -8 16 24 35 48 29 53 29 53 -1z m-406 -90 c8
-21 6 -29 -10 -40 -18 -14 -19 -12 -24 27 -3 23 -10 49 -15 57 -8 12 -5 12 15
-1 14 -9 29 -28 34 -43z m199 -9 c-5 -40 -23 -77 -23 -48 0 8 -8 19 -17 26
-15 11 -15 15 6 44 29 40 41 32 34 -22z m-907 -43 c8 -31 -4 -232 -17 -293
-11 -50 5 -85 17 -37 3 14 9 26 13 26 3 -1 23 -37 43 -80 20 -44 42 -80 48
-80 6 0 25 14 42 30 16 17 32 30 35 30 5 0 -6 -242 -13 -282 -8 -41 11 -34 46
15 54 77 58 82 65 75 11 -10 -15 -119 -41 -169 -19 -39 -23 -61 -23 -138 1
-50 4 -93 9 -96 12 -7 27 16 35 55 19 87 48 155 90 210 25 32 50 62 56 66 23
14 20 -8 -6 -61 -20 -40 -25 -59 -18 -66 13 -13 42 33 94 146 18 39 37 73 43
77 6 4 28 8 49 8 35 0 37 -1 26 -21 -21 -40 6 -39 45 1 47 49 76 51 118 10 16
-16 32 -30 34 -30 3 0 17 14 31 30 36 43 69 40 118 -10 26 -27 42 -37 49 -30
7 7 6 14 -2 22 -20 20 -14 28 25 28 34 0 73 -22 73 -42 0 -15 80 -172 96 -188
12 -12 14 -12 14 8 0 12 -10 42 -22 67 -26 54 -16 72 18 30 77 -96 120 -192
131 -296 5 -48 8 -57 19 -48 10 8 14 42 14 126 0 101 -3 119 -24 162 -27 53
-45 151 -28 151 5 0 21 -19 35 -43 14 -23 34 -51 46 -61 28 -25 36 -5 22 55
-11 46 -15 239 -5 239 3 0 17 -13 31 -30 13 -16 31 -30 39 -30 7 0 31 37 53
83 39 81 40 82 50 54 17 -45 28 -23 20 40 -25 188 -29 261 -18 287 21 44 36
31 44 -36 3 -35 20 -136 37 -225 31 -161 31 -163 13 -203 -10 -22 -23 -40 -30
-40 -6 0 -16 23 -21 51 -5 27 -13 49 -19 47 -14 -4 -13 -144 2 -193 6 -22 22
-74 34 -115 l23 -74 -51 -95 c-28 -53 -56 -97 -63 -99 -9 -3 -11 21 -9 93 3
67 0 100 -7 102 -15 5 -20 -17 -34 -142 -17 -150 -20 -165 -34 -165 -10 0 -16
27 -22 102 -5 58 -14 103 -20 105 -16 5 -24 -68 -24 -207 l0 -117 -47 -39
c-25 -21 -51 -39 -57 -39 -6 0 -17 25 -24 55 -29 117 -47 171 -59 182 -18 14
-17 -22 3 -142 25 -149 20 -178 -45 -253 -29 -32 -126 -86 -136 -75 -12 12 16
171 40 231 30 77 31 86 4 184 -23 85 -44 133 -58 133 -17 0 -18 -24 -4 -105
16 -103 16 -151 -1 -206 -8 -24 -26 -83 -41 -130 -29 -92 -66 -151 -84 -134
-7 7 -3 26 14 61 19 39 27 78 34 170 5 65 8 121 6 123 -2 2 -10 1 -18 -2 -9
-3 -17 -28 -21 -65 -4 -33 -24 -114 -45 -179 -37 -112 -40 -118 -66 -118 -25
0 -30 7 -56 80 -16 44 -39 126 -51 183 -39 183 -67 105 -32 -92 8 -49 22 -99
30 -110 19 -27 18 -56 -2 -56 -21 0 -66 101 -100 226 -31 111 -32 134 -12 252
14 77 11 101 -11 88 -4 -3 -11 -19 -14 -36 -4 -16 -16 -50 -27 -75 -33 -73
-36 -126 -10 -180 20 -41 55 -233 45 -243 -8 -8 -90 29 -114 51 -52 48 -66
147 -36 260 18 69 18 77 5 77 -16 0 -80 -140 -80 -172 0 -35 -19 -36 -49 -4
-29 30 -26 44 33 169 50 105 118 202 170 242 36 28 36 28 89 12 28 -9 77 -21
107 -28 30 -6 58 -17 62 -23 4 -6 8 -50 8 -98 0 -49 4 -88 9 -88 4 0 11 32 15
71 3 39 9 76 12 80 14 23 24 -9 24 -77 0 -59 3 -74 15 -74 12 0 15 17 15 95 0
110 -4 106 114 128 43 8 83 20 89 26 22 22 44 10 116 -60 52 -50 76 -68 84
-60 18 18 -5 51 -108 160 -53 56 -101 115 -107 131 -5 17 -14 30 -19 30 -12 0
-11 -47 2 -72 18 -33 1 -34 -60 0 -54 30 -65 32 -155 32 -88 0 -102 -3 -157
-31 -34 -17 -63 -28 -65 -26 -3 2 0 16 6 31 12 33 13 66 2 66 -5 0 -17 -17
-26 -39 -10 -21 -62 -83 -117 -137 -54 -54 -99 -102 -99 -106 0 -4 -15 -31
-34 -60 -18 -29 -50 -86 -70 -125 -20 -40 -41 -73 -46 -73 -6 0 -10 61 -10
159 0 103 -4 162 -11 166 -17 11 -18 4 -26 -100 -5 -62 -12 -100 -20 -102 -15
-5 -18 10 -33 162 -17 177 -38 196 -44 41 -1 -47 -5 -88 -8 -92 -3 -3 -23 26
-44 63 -20 37 -46 83 -56 100 -13 25 -15 38 -8 55 18 42 80 301 80 336 0 50
-21 35 -38 -26 -8 -29 -20 -52 -27 -52 -6 0 -20 15 -30 34 -17 30 -17 41 -6
102 7 38 19 116 27 174 23 165 35 220 50 220 8 0 17 -12 20 -26z m419 7 c-8
-13 -75 -15 -75 -2 0 6 17 11 38 13 43 4 46 3 37 -11z m414 -2 c10 -11 26 -40
36 -64 15 -42 15 -47 -4 -109 -24 -77 -19 -100 40 -187 l38 -57 -32 -41 -31
-41 -82 0 c-99 0 -106 2 -139 46 l-26 34 41 62 c58 89 61 111 29 215 -12 38
-11 46 11 93 34 73 79 92 119 49z m-244 -493 c-22 -33 -32 -33 -47 -1 -9 21
-8 28 7 45 18 20 19 20 38 2 18 -19 18 -21 2 -46z m450 34 c5 -8 -1 -24 -22
-59 -5 -8 -43 32 -43 46 0 24 23 42 42 32 9 -5 20 -13 23 -19z m-387 -42 c18
-18 15 -25 -18 -36 -36 -13 -45 -2 -22 26 20 25 24 26 40 10z m314 -12 c16
-22 16 -25 1 -30 -8 -4 -23 -1 -32 6 -9 7 -18 14 -20 15 -5 3 20 33 28 33 3 0
14 -11 23 -24z m-603 -130 c10 -11 8 -19 -6 -36 -10 -12 -26 -26 -35 -31 -15
-8 -18 -5 -17 18 2 47 10 63 28 63 10 0 24 -6 30 -14z m905 -8 c3 -13 6 -38 6
-57 l0 -34 -39 44 c-28 32 -36 47 -29 57 18 21 55 15 62 -10z m-354 -151 c36
-18 65 -36 65 -40 0 -5 -85 -9 -190 -10 -112 0 -190 3 -190 9 0 5 29 24 65 41
89 45 159 44 250 0z m-334 -14 c-3 -8 -6 -19 -6 -24 0 -5 -16 -9 -36 -9 l-35
0 20 29 c15 21 27 28 42 24 12 -4 18 -11 15 -20z m473 -17 c-2 -2 -14 -6 -25
-10 -25 -8 -41 19 -23 40 9 11 15 10 32 -6 11 -11 19 -22 16 -24z m-226 -52
c3 -4 0 -19 -8 -35 -17 -31 -36 -30 -69 4 -15 16 -16 21 -5 28 16 10 73 12 82
3z m-683 -261 c0 -26 0 -26 -20 -8 -16 14 -17 20 -8 27 22 13 28 9 28 -19z
m1330 18 c0 -5 -8 -17 -17 -27 -17 -17 -18 -17 -21 1 -2 9 2 21 10 26 17 11
28 11 28 0z m-1499 -100 c12 -11 20 -35 24 -71 8 -86 14 -106 39 -129 20 -19
27 -20 52 -11 16 6 37 19 46 27 21 19 22 10 5 -37 -38 -105 -84 -143 -190
-160 -84 -13 -130 -2 -178 42 -51 47 -59 75 -59 197 0 148 13 162 154 159 63
-1 94 -6 107 -17z m247 -37 c1 -20 -5 -42 -13 -50 -20 -20 -27 -17 -20 9 17
60 17 60 4 51 -12 -6 -12 -5 0 9 20 25 28 21 29 -19z m130 -123 c4 -27 -12
-21 -29 10 -9 18 -8 20 8 17 10 -2 19 -14 21 -27z m646 -162 c-6 -11 -44 -12
-44 -1 0 4 8 18 17 31 l16 24 9 -22 c4 -13 6 -27 2 -32z m-388 24 c19 -26 17
-33 -10 -33 -30 0 -42 16 -26 35 16 19 20 19 36 -2z"/>
<path d="M1287 3479 c-75 -21 -273 -102 -324 -132 -18 -10 -33 -25 -33 -33 0
-8 2 -14 5 -14 3 0 62 23 132 50 70 28 165 57 213 65 109 19 267 19 349 0 65
-16 255 -75 325 -101 40 -16 52 -13 43 8 -11 27 -232 122 -372 159 -95 25
-246 24 -338 -2z"/>
<path d="M1447 3283 c-4 -3 -7 -15 -7 -25 0 -12 -7 -18 -23 -18 -13 0 -32 -7
-43 -15 -19 -15 -19 -15 0 -30 11 -8 30 -15 43 -15 22 0 23 -2 23 -95 0 -101
-7 -113 -41 -72 -21 25 -25 53 -7 59 12 4 -17 58 -32 58 -11 0 -20 -38 -20
-81 0 -32 8 -44 60 -93 34 -31 64 -56 69 -56 4 0 34 27 65 60 57 60 57 60 50
107 -7 52 -11 63 -23 63 -14 0 -34 -54 -22 -58 6 -2 11 -9 11 -16 0 -17 -38
-66 -51 -66 -5 0 -9 43 -9 95 0 84 2 95 18 95 9 0 26 7 36 15 16 12 17 17 6
30 -7 8 -25 15 -41 15 -24 0 -29 4 -29 25 0 24 -18 34 -33 18z"/>
<path d="M400 2695 c-65 -94 -99 -199 -75 -231 12 -17 15 -17 28 -4 12 13 107
256 107 274 0 3 -7 6 -15 6 -8 0 -28 -20 -45 -45z"/>
<path d="M2470 2725 c0 -8 4 -23 10 -33 5 -9 26 -62 46 -117 38 -106 55 -132
74 -120 17 10 5 96 -22 154 -39 89 -108 162 -108 116z"/>
<path d="M1085 2688 c-75 -26 -201 -83 -222 -102 -13 -11 -23 -27 -23 -35 0
-12 3 -13 8 -4 9 14 109 61 217 103 89 35 106 68 20 38z"/>
<path d="M1780 2692 c0 -5 47 -27 103 -50 57 -23 129 -55 160 -71 32 -16 57
-28 57 -26 0 2 -11 16 -25 31 -29 31 -73 53 -190 95 -84 30 -105 35 -105 21z"/>
<path d="M1230 2648 c-165 -35 -374 -112 -393 -144 -4 -7 -24 -21 -44 -31 -47
-22 -153 -124 -153 -147 0 -15 6 -12 33 14 17 17 68 55 112 84 73 49 103 65
205 109 31 13 197 68 285 95 30 9 38 26 13 29 -7 0 -33 -3 -58 -9z"/>
<path d="M1626 2651 c-6 -10 18 -20 179 -71 137 -44 305 -127 395 -195 41 -31
76 -51 78 -45 6 17 -55 77 -118 117 -30 19 -59 40 -65 47 -29 36 -225 107
-390 141 -83 18 -73 17 -79 6z"/>
<path d="M1504 2429 c-9 -14 14 -29 46 -29 49 0 180 -24 180 -32 0 -5 5 -6 10
-3 15 9 3 24 -28 37 -16 6 -22 12 -14 15 6 3 12 9 12 14 0 13 -197 11 -206 -2z"/>
<path d="M1568 2353 c-16 -2 -28 -10 -28 -17 0 -15 44 -26 104 -26 77 0 361
-43 378 -58 15 -12 16 -12 12 5 -7 24 -72 54 -122 58 -83 5 -168 18 -178 27
-14 10 -127 18 -166 11z"/>
<path d="M1705 1770 c-10 -16 1 -26 60 -54 44 -21 71 -26 128 -26 69 0 73 1
92 31 18 28 23 30 63 25 44 -6 56 6 23 24 -34 18 -76 12 -101 -15 -23 -25 -28
-26 -105 -19 -50 4 -91 13 -111 25 -36 22 -41 23 -49 9z"/>
<path d="M853 1773 c-7 -2 -13 -11 -13 -18 0 -10 10 -12 36 -8 33 5 40 3 65
-28 27 -33 27 -34 103 -30 59 2 87 9 122 28 44 25 63 47 51 60 -4 3 -21 -3
-40 -14 -22 -14 -62 -23 -118 -27 -82 -7 -85 -7 -108 18 -23 25 -65 33 -98 19z"/>
<path d="M352 1558 c-71 -104 -100 -203 -88 -310 8 -81 40 -147 115 -240 71
-88 91 -137 91 -219 0 -63 8 -75 35 -55 14 10 20 30 23 79 5 82 -21 144 -97
232 -28 33 -66 89 -83 124 -28 55 -32 75 -32 135 0 63 23 161 44 191 17 25 39
95 30 100 -5 3 -22 -14 -38 -37z"/>
<path d="M280 962 c0 -5 13 -18 30 -30 32 -24 60 -99 60 -163 0 -28 5 -41 20
-49 28 -15 34 5 28 85 -6 73 -35 128 -78 150 -32 16 -60 20 -60 7z"/>
</g>
</svg>
